<svg xmlns="http://www.w3.org/2000/svg" width="256" height="264" viewBox="0 0 256 264"><defs><linearGradient id="logosAstro0" x1="137.073%" x2="85.999%" y1="-40.996%" y2="56.205%"><stop offset="0%" stop-color="#FF1639"/><stop offset="100%" stop-color="#FF1639" stop-opacity="0"/></linearGradient></defs><g fill="none" fill-rule="evenodd"><path fill="#000" d="M156.377 4.834c1.575 1.956 2.379 4.595 3.986 9.874l35.105 115.32a146.081 146.081 0 0 0-41.97-14.209l-22.857-77.24a2.975 2.975 0 0 0-5.708.008l-22.58 77.193a146.086 146.086 0 0 0-42.159 14.23L95.471 14.682c1.612-5.27 2.418-7.904 3.994-9.857A12.97 12.97 0 0 1 104.72.936C107.048 0 109.804 0 115.315 0h25.196c5.518 0 8.277 0 10.607.938a13.016 13.016 0 0 1 5.259 3.896Z"/><path fill="#FF5D01" d="M160.577 135.516c-5.787 4.949-17.338 8.324-30.643 8.324c-16.33 0-30.017-5.084-33.65-11.922c-1.298 3.92-1.589 8.404-1.589 11.269c0 0-.856 14.068 8.929 23.852a9.199 9.199 0 0 1 9.2-9.198c8.707 0 8.697 7.596 8.69 13.76l-.001.55c0 9.355 5.718 17.375 13.85 20.757a18.86 18.86 0 0 1-1.896-8.268c0-8.923 5.238-12.246 11.326-16.108c4.845-3.072 10.227-6.485 13.936-13.332a25.145 25.145 0 0 0 3.034-12.013a25.24 25.24 0 0 0-1.186-7.67Z"/><path fill="url(#logosAstro0)" d="M160.577 135.516c-5.787 4.949-17.338 8.324-30.643 8.324c-16.33 0-30.017-5.084-33.65-11.922c-1.298 3.92-1.589 8.404-1.589 11.269c0 0-.856 14.068 8.929 23.852a9.199 9.199 0 0 1 9.2-9.198c8.707 0 8.697 7.596 8.69 13.76l-.001.55c0 9.355 5.718 17.375 13.85 20.757a18.86 18.86 0 0 1-1.896-8.268c0-8.923 5.238-12.246 11.326-16.108c4.845-3.072 10.227-6.485 13.936-13.332a25.145 25.145 0 0 0 3.034-12.013a25.24 25.24 0 0 0-1.186-7.67Z"/></g></svg>