<svg width="926" height="749" viewBox="0 0 926 749" fill="none" xmlns="http://www.w3.org/2000/svg">
<path d="M679 433.322H677.178V431.5H676.822V433.322H675V433.678H676.822V435.5H677.178V433.678H679V433.322Z" fill="#F2F2F2"/>
<path d="M679.872 230.689H676.997V288.753H679.872V230.689Z" fill="#E6E6E6"/>
<path d="M611.748 385.046L585.303 445.984L590.477 454.607L588.752 457.481L600.825 463.805V460.356L605.424 459.206L624.97 423.563L611.748 385.046Z" fill="#E6E6E6"/>
<path d="M591.052 456.907C591.052 456.907 571.506 487.375 593.351 491.975C615.197 496.574 597.375 459.781 597.375 459.781L591.052 456.907Z" fill="#E6E6E6"/>
<path d="M619.221 443.109L612.323 465.53L609.448 494.274L604.274 504.622L610.023 551.188L619.221 560.386L623.245 606.377V627.073L634.168 646.044L620.102 666.008C619.439 666.946 619.042 668.047 618.953 669.192C618.865 670.338 619.089 671.486 619.6 672.515C620.112 673.543 620.893 674.414 621.86 675.035C622.827 675.655 623.944 676.002 625.093 676.039C628.198 676.121 632.292 675.243 637.617 672.489C654.289 663.865 653.714 655.817 653.714 655.817C653.714 655.817 664.062 655.817 664.637 647.768C665.212 639.72 658.313 582.232 658.313 582.232L651.99 557.511V490.25H654.289L655.439 547.738L660.613 569.009L661.188 578.207L668.661 670.189C668.661 670.189 702.005 679.387 703.729 671.914C705.454 664.44 691.082 659.841 691.082 659.841L699.705 643.169V610.976L696.831 604.077L691.657 557.511L700.28 548.313L704.879 542.564V496.574L699.13 478.752L697.405 463.805L688.207 440.81C688.207 440.81 646.241 427.013 619.221 443.109Z" fill="white"/>
<path d="M693.956 313.185C693.956 320.1 692.315 326.916 689.168 333.073C686.02 339.23 681.456 344.553 675.851 348.602C670.246 352.651 663.76 355.313 656.926 356.367C650.092 357.421 643.105 356.838 636.54 354.666C629.975 352.494 624.02 348.795 619.163 343.872C614.307 338.95 610.688 332.945 608.604 326.352C606.521 319.758 606.032 312.764 607.178 305.945C608.324 299.126 611.072 292.676 615.197 287.126L615.208 287.114C620.689 279.742 628.353 274.285 637.112 271.519C645.871 268.753 655.28 268.817 664 271.704C672.72 274.591 680.308 280.154 685.686 287.6C691.064 295.047 693.958 304 693.956 313.185V313.185Z" fill="#6C63FF"/>
<g opacity="0.1">
<path opacity="0.1" d="M687.747 295.071L684.183 315.485C657.399 245.958 614.795 288.666 614.059 289.414C618.462 283.492 624.293 278.782 631.009 275.724C637.724 272.665 645.105 271.357 652.463 271.922C659.821 272.486 666.915 274.906 673.085 278.954C679.255 283.002 684.3 288.546 687.747 295.071V295.071Z" fill="black"/>
</g>
<path d="M688.897 292.771L685.333 313.185C658.549 243.659 615.944 286.367 615.208 287.114C619.612 281.193 625.443 276.483 632.159 273.424C638.874 270.365 646.255 269.057 653.613 269.622C660.97 270.187 668.065 272.606 674.235 276.654C680.405 280.702 685.449 286.247 688.897 292.771V292.771Z" fill="white"/>
<path d="M682.908 284.153L688.897 304.943C688.897 304.943 676.465 342.206 618.811 343.505L616.922 348.828L610.598 350.553L607.723 362.625L615.772 439.085C615.772 439.085 612.323 446.559 618.071 445.984C618.071 445.984 656.014 433.336 688.782 444.834C688.782 444.834 695.681 447.708 693.956 441.385C693.956 441.385 716.952 427.013 715.227 412.066C713.502 397.119 716.952 327.557 716.952 327.557C716.952 327.557 720.401 307.436 710.053 302.837C710.053 302.837 694.855 281.565 682.908 284.153Z" fill="white"/>
<path d="M670.304 429.418C670.304 429.418 634.286 433.035 644.256 453.009C654.227 472.983 671.981 436.158 671.981 436.158L670.304 429.418Z" fill="#E6E6E6"/>
<path d="M688.782 340.205C688.782 340.205 682.459 347.678 684.758 359.751C687.058 371.824 695.681 398.843 695.681 398.843L665.212 427.013L674.41 439.66L715.802 418.389L725 412.64C722.713 389.388 717.021 366.598 708.108 345L706.604 341.355C706.604 341.355 695.681 336.756 688.782 340.205Z" fill="#E6E6E6"/>
<path d="M685.908 319.796C691.782 319.796 696.543 315.035 696.543 309.161C696.543 303.287 691.782 298.526 685.908 298.526C680.034 298.526 675.272 303.287 675.272 309.161C675.272 315.035 680.034 319.796 685.908 319.796Z" fill="#E6E6E6"/>
<path d="M678.434 238.163C682.721 238.163 686.195 234.688 686.195 230.402C686.195 226.115 682.721 222.641 678.434 222.641C674.148 222.641 670.673 226.115 670.673 230.402C670.673 234.688 674.148 238.163 678.434 238.163Z" fill="#E6E6E6"/>
<path d="M645 296.322H643.178V294.5H642.822V296.322H641V296.678H642.822V298.5H643.178V296.678H645V296.322Z" fill="#F2F2F2"/>
<path d="M627 313.322H625.178V311.5H624.822V313.322H623V313.678H624.822V315.5H625.178V313.678H627V313.322Z" fill="#F2F2F2"/>
</svg>
