<svg width="926" height="749" viewBox="0 0 926 749" fill="none" xmlns="http://www.w3.org/2000/svg">
<path d="M676.992 433.681H675.17V431.859H674.814V433.681H672.992V434.037H674.814V435.859H675.17V434.037H676.992V433.681Z" fill="#F2F2F2"/>
<path d="M677.864 231.048H674.989V289.112H677.864V231.048Z" fill="#727272"/>
<path d="M609.74 385.405L583.295 446.343L588.469 454.966L586.744 457.84L598.817 464.164V460.715L603.416 459.565L622.962 423.922L609.74 385.405Z" fill="#313131"/>
<path d="M589.044 457.266C589.044 457.266 569.498 487.735 591.343 492.334C613.189 496.933 595.368 460.14 595.368 460.14L589.044 457.266Z" fill="#727272"/>
<path d="M617.213 443.469L610.315 465.889L607.44 494.633L602.266 504.981L608.015 551.547L617.213 560.745L621.237 606.736V627.432L632.16 646.403L618.094 666.367C617.431 667.305 617.034 668.406 616.946 669.551C616.857 670.697 617.081 671.845 617.593 672.874C618.104 673.903 618.885 674.774 619.852 675.394C620.819 676.015 621.936 676.362 623.085 676.398C626.19 676.48 630.284 675.602 635.61 672.848C652.281 664.224 651.706 656.176 651.706 656.176C651.706 656.176 662.054 656.176 662.629 648.128C663.204 640.079 656.305 582.591 656.305 582.591L649.982 557.871V490.609H652.281L653.431 548.098L658.605 569.368L659.18 578.567L666.653 670.548C666.653 670.548 699.997 679.746 701.721 672.273C703.446 664.799 689.074 660.2 689.074 660.2L697.697 643.529V611.335L694.823 604.436L689.649 557.871L698.272 548.673L702.871 542.924V496.933L697.122 479.111L695.398 464.164L686.199 441.169C686.199 441.169 644.233 427.372 617.213 443.469Z" fill="#3D3C3C"/>
<path d="M691.948 313.544C691.949 320.459 690.307 327.276 687.16 333.433C684.013 339.59 679.449 344.912 673.843 348.961C668.238 353.011 661.752 355.672 654.918 356.726C648.084 357.78 641.097 357.197 634.532 355.025C627.968 352.853 622.012 349.154 617.156 344.231C612.299 339.309 608.68 333.304 606.596 326.711C604.513 320.117 604.024 313.123 605.17 306.304C606.316 299.485 609.065 293.035 613.189 287.485L613.201 287.473C618.681 280.102 626.345 274.645 635.104 271.878C643.863 269.112 653.272 269.177 661.992 272.064C670.712 274.951 678.3 280.513 683.678 287.96C689.056 295.406 691.95 304.359 691.948 313.544V313.544Z" fill="#322F6B"/>
<g opacity="0.1">
<path opacity="0.1" d="M685.74 295.43L682.175 315.844C655.391 246.317 612.787 289.026 612.051 289.773C616.454 283.851 622.286 279.141 629.001 276.083C635.717 273.024 643.097 271.716 650.455 272.281C657.813 272.846 664.908 275.265 671.078 279.313C677.248 283.361 682.292 288.905 685.74 295.43V295.43Z" fill="black"/>
</g>
<path d="M686.889 293.13L683.325 313.544C656.541 244.018 613.936 286.726 613.201 287.473C617.604 281.552 623.435 276.842 630.151 273.783C636.866 270.724 644.247 269.416 651.605 269.981C658.963 270.546 666.057 272.965 672.227 277.013C678.397 281.061 683.441 286.606 686.889 293.13V293.13Z" fill="#3D3C3C"/>
<path d="M680.9 284.512L686.889 305.302C686.889 305.302 674.457 342.566 616.803 343.864L614.914 349.187L608.59 350.912L605.716 362.985L613.764 439.444C613.764 439.444 610.315 446.918 616.064 446.343C616.064 446.343 654.006 433.695 686.774 445.193C686.774 445.193 693.673 448.068 691.948 441.744C691.948 441.744 714.944 427.372 713.219 412.425C711.495 397.478 714.944 327.917 714.944 327.917C714.944 327.917 718.393 307.796 708.045 303.197C708.045 303.196 692.847 281.924 680.9 284.512Z" fill="#3D3C3C"/>
<path d="M668.297 429.777C668.297 429.777 632.278 433.394 642.249 453.368C652.219 473.343 669.974 436.518 669.974 436.518L668.297 429.777Z" fill="#727272"/>
<path d="M686.774 340.564C686.774 340.564 680.451 348.038 682.75 360.11C685.05 372.183 693.673 399.202 693.673 399.202L663.204 427.372L672.402 440.019L713.794 418.748L722.992 413C720.705 389.747 715.014 366.957 706.1 345.359L704.596 341.714C704.596 341.714 693.673 337.115 686.774 340.564Z" fill="#313131"/>
<path d="M683.9 320.156C689.774 320.156 694.535 315.394 694.535 309.52C694.535 303.646 689.774 298.885 683.9 298.885C678.026 298.885 673.265 303.646 673.265 309.52C673.265 315.394 678.026 320.156 683.9 320.156Z" fill="#727272"/>
<path d="M676.426 238.522C680.713 238.522 684.187 235.047 684.187 230.761C684.187 226.475 680.713 223 676.426 223C672.14 223 668.666 226.475 668.666 230.761C668.666 235.047 672.14 238.522 676.426 238.522Z" fill="#727272"/>
<path d="M642.992 296.681H641.17V294.859H640.814V296.681H638.992V297.037H640.814V298.859H641.17V297.037H642.992V296.681Z" fill="#F2F2F2"/>
<path d="M624.992 313.681H623.17V311.859H622.814V313.681H620.992V314.037H622.814V315.859H623.17V314.037H624.992V313.681Z" fill="#F2F2F2"/>
</svg>
