<svg id="visual" viewBox="0 0 500 1200" width="500" height="1200" xmlns="http://www.w3.org/2000/svg" xmlns:xlink="http://www.w3.org/1999/xlink" version="1.1"><path d="M259 0L234.5 28.5C210 57 161 114 138.8 171.2C116.7 228.3 121.3 285.7 137.7 342.8C154 400 182 457 180 514.2C178 571.3 146 628.7 151.8 685.8C157.7 743 201.3 800 210.3 857.2C219.3 914.3 193.7 971.7 177.3 1028.8C161 1086 154 1143 150.5 1171.5L147 1200L0 1200L0 1171.5C0 1143 0 1086 0 1028.8C0 971.7 0 914.3 0 857.2C0 800 0 743 0 685.8C0 628.7 0 571.3 0 514.2C0 457 0 400 0 342.8C0 285.7 0 228.3 0 171.2C0 114 0 57 0 28.5L0 0Z" fill="#e0e0e0" stroke-linecap="round" stroke-linejoin="miter"></path></svg>