<svg width="128" height="128" viewBox="0 0 128 128" fill="none" xmlns="http://www.w3.org/2000/svg">
<path d="M128 64C128 99.3462 99.3462 128 64 128C28.6538 128 0 99.3462 0 64C0 28.6538 28.6538 0 64 0C99.3462 0 128 28.6538 128 64ZM3.85443 64C3.85443 97.2175 30.7825 124.146 64 124.146C97.2175 124.146 124.146 97.2175 124.146 64C124.146 30.7825 97.2175 3.85443 64 3.85443C30.7825 3.85443 3.85443 30.7825 3.85443 64Z" fill="#F1F1F1"/>
<path d="M34.3064 32.0623L21 94.6637" stroke="#F1F1F1" stroke-width="6" stroke-linecap="round"/>
<path d="M107.322 94.6604L94 32.0623" stroke="#F1F1F1" stroke-width="6" stroke-linecap="round"/>
<path d="M34.692 32.3074L63.6407 68.0561" stroke="#F1F1F1" stroke-width="6" stroke-linecap="round"/>
<path d="M64.4303 67.7487L93.3791 32" stroke="#F1F1F1" stroke-width="6" stroke-linecap="round"/>
<path d="M64.9498 96.0326L63 32.0623" stroke="#F1F1F1" stroke-width="6" stroke-linecap="round"/>
<path d="M97 59.0623H74" stroke="#F1F1F1" stroke-width="6" stroke-linecap="round"/>
</svg>
